{"title":"The Pill 2011 DVDRip XViD-juggs","uid":8155119,"size":742598135,"categoryP":"video","categoryS":"movies","magnet":"?xt=urn:btih:2f3cf25b82aaa7c4c3948e43b701104f2e149091&amp;dn=The+Pill+2011+DVDRip+XViD-juggs&amp;tr=udp%3A%2F%2Ftracker.openbittorrent.com%3A80&amp;tr=udp%3A%2F%2Fopen.demonii.com%3A1337&amp;tr=udp%3A%2F%2Ftracker.coppersurfer.tk%3A6969&amp;tr=udp%3A%2F%2Fexodus.desync.com%3A6969","seeders":4,"leechers":0,"uploader":"juggs99","files":3,"time":1361146816,"description":" &lt;a href=&quot;http://www.imdb.com/title/tt1691154/&quot; rel=&quot;nofollow&quot; target=&quot;_NEW&quot;&gt;http://www.imdb.com/title/tt1691154/&lt;/a&gt;\n\n\n\nSource : DVDR-IGUANA\n\n\nFormat : AVI\nFormat/Info : Audio Video Interleave\nFile size : 700 MiB\nDuration : 1h 22mn\nOverall bit rate : 1 180 Kbps\nWriting library : VirtualDub build 32842/release\n\nVideo\nID : 0\nFormat : MPEG-4 Visual\nFormat profile : Advanced Simple@L5\nFormat settings, BVOP : 4\nFormat settings, QPel : No\nFormat settings, GMC : No warppoints\nFormat settings, Matrix : Default (H.263)\nMuxing mode : Packed bitstream\nCodec ID : XVID\nCodec ID/Hint : XviD\nDuration : 1h 22mn\nBit rate : 1 043 Kbps\nWidth : 640 pixels\nHeight : 352 pixels\nDisplay aspect ratio : 16:9\nFrame rate : 23.976 fps\nColor space : YUV\nChroma subsampling : 4:2:0\nBit depth : 8 bits\nScan type : Progressive\nCompression mode : Lossy\nBits/(Pixel*Frame) : 0.193\nStream size : 619 MiB (88%)\nWriting library : XviD 64\n\nAudio\nID : 1\nFormat : MPEG Audio\nFormat version : Version 1\nFormat profile : Layer 3\nCodec ID : 55\nCodec ID/Hint : MP3\nDuration : 1h 22mn\nBit rate mode : Constant\nBit rate : 128 Kbps\nChannel(s) : 2 channels\nSampling rate : 44.1 KHz\nCompression mode : Lossy\nStream size : 75.9 MiB (11%)\nAlignment : Split accross interleaves\nInterleave, duration : 42 ms (1.00 video frame)\nInterleave, preload duration : 500 ms\nWriting library : LAME3.99r\n\n\nPlot\nWorried that he has gotten the free-spirited Mindy pregnant after an unprotected one-night stand, Fred feigns romantic interest and sticks by her side for twelve hours to make sure she takes both doses of the morning-after pill.\n\n &lt;a href=&quot;\nhttp://www.shotpix.com/images/37613056409265884664.png&quot; rel=&quot;nofollow&quot; target=&quot;_NEW&quot;&gt;\nhttp://www.shotpix.com/images/37613056409265884664.png&lt;/a&gt; &lt;a href=&quot;\nhttp://www.shotpix.com/images/46004214963855737771.png&quot; rel=&quot;nofollow&quot; target=&quot;_NEW&quot;&gt;\nhttp://www.shotpix.com/images/46004214963855737771.png&lt;/a&gt; &lt;a href=&quot;\nhttp://www.shotpix.com/images/95279469796881013320.png&quot; rel=&quot;nofollow&quot; target=&quot;_NEW&quot;&gt;\nhttp://www.shotpix.com/images/95279469796881013320.png&lt;/a&gt;","torrent":{"xt":"urn:btih:2f3cf25b82aaa7c4c3948e43b701104f2e149091","amp;dn":"The+Pill+2011+DVDRip+XViD-juggs","amp;tr":["udp%3A%2F%2Ftracker.openbittorrent.com%3A80","udp%3A%2F%2Fopen.demonii.com%3A1337","udp%3A%2F%2Ftracker.coppersurfer.tk%3A6969","udp%3A%2F%2Fexodus.desync.com%3A6969"],"infoHash":"2f3cf25b82aaa7c4c3948e43b701104f2e149091","infoHashBuffer":{"type":"Buffer","data":[47,60,242,91,130,170,167,196,195,148,142,67,183,1,16,79,46,20,144,145]},"announce":[],"urlList":[]}}